<?xml version="1.0" encoding="UTF-8" standalone="no" ?>
<!DOCTYPE svg PUBLIC "-//W3C//DTD SVG 1.1//EN" "http://www.w3.org/Graphics/SVG/1.1/DTD/svg11.dtd">
<svg xmlns="http://www.w3.org/2000/svg" xmlns:xlink="http://www.w3.org/1999/xlink" version="1.1" width="1080" height="1080" viewBox="0 0 1080 1080" xml:space="preserve">
<desc>Created with Fabric.js 5.2.4</desc>
<defs>
</defs>
<rect x="0" y="0" width="100%" height="100%" fill="transparent"></rect>
<g transform="matrix(1 0 0 1 540 540)" id="2ec68c6a-edd6-49b4-af71-c7ed8578cd95"  >
</g>
<g transform="matrix(1 0 0 1 540 540)" id="c686abd6-76f2-4ff2-ba5f-c4880705767e"  >
<rect style="stroke: none; stroke-width: 1; stroke-dasharray: none; stroke-linecap: butt; stroke-dashoffset: 0; stroke-linejoin: miter; stroke-miterlimit: 4; fill: rgb(255,255,255); fill-rule: nonzero; opacity: 1; visibility: hidden;" vector-effect="non-scaling-stroke"  x="-540" y="-540" rx="0" ry="0" width="1080" height="1080" />
</g>
<g transform="matrix(0.23 0 0 -0.23 464.98 540)"  >
<path style="stroke: none; stroke-width: 1; stroke-dasharray: none; stroke-linecap: butt; stroke-dashoffset: 0; stroke-linejoin: miter; stroke-miterlimit: 4; fill: rgb(228,4,4); fill-rule: nonzero; opacity: 1;" vector-effect="non-scaling-stroke"  transform=" translate(-1725.05, -3274.14)" d="M 1485 4740 C 1295 4730 1171 4704 1060 4652 C 1012 4629 907 4568 893 4556 C 887 4550 856 4525 825 4500 C 772 4457 650 4319 650 4300 C 650 4295 644 4285 636 4277 C 615 4257 565 4153 540 4080 C 486 3921 485 3899 488 2808 L 491 1800 L 729 1800 C 928 1800 970 1802 980 1815 C 989 1826 991 1876 985 2027 C 978 2221 978 2226 1000 2253 C 1016 2274 1030 2280 1058 2280 C 1120 2280 1124 2266 1130 2020 L 1135 1805 L 1408 1802 L 1680 1800 L 1680 2007 C 1680 2122 1683 2225 1686 2237 C 1689 2249 1708 2266 1727 2275 C 1761 2291 1764 2291 1789 2272 C 1815 2253 1815 2252 1823 2069 C 1827 1968 1829 1868 1827 1847 C 1825 1816 1828 1808 1845 1804 C 1856 1802 1969 1801 2095 1802 L 2325 1805 L 2330 2027 C 2335 2234 2336 2250 2355 2264 C 2389 2290 2425 2287 2458 2257 C 2480 2237 2480 2232 2480 2018 L 2480 1800 L 2718 1802 L 2955 1805 L 2960 2221 C 2963 2450 2964 2644 2962 2652 C 2960 2664 2951 2666 2917 2659 C 2802 2635 2755 2630 2645 2630 C 2211 2631 1804 2877 1617 3255 C 1598 3294 1575 3350 1566 3380 C 1556 3410 1545 3444 1540 3455 C 1528 3481 1500 3691 1500 3752 C 1500 3833 1530 4007 1560 4101 C 1589 4190 1659 4340 1686 4371 C 1694 4379 1700 4390 1700 4393 C 1700 4400 1722 4429 1748 4455 C 1754 4463 1760 4471 1760 4474 C 1760 4477 1793 4513 1833 4553 C 1896 4616 1964 4672 2050 4732 C 2074 4748 2064 4749 1850 4748 C 1726 4747 1562 4743 1485 4740 z" stroke-linecap="round" />
</g>
<g transform="matrix(0.23 0 0 -0.23 673.7 539.57)"  >
<path style="stroke: none; stroke-width: 0; stroke-dasharray: none; stroke-linecap: butt; stroke-dashoffset: 0; stroke-linejoin: miter; stroke-miterlimit: 4; fill: rgb(228,4,4); fill-rule: nonzero; opacity: 1;" vector-effect="non-scaling-stroke"  transform=" translate(-2629.2, -3273.84)" d="M 2465 4743 C 2454 4741 2409 4727 2365 4713 C 2100 4629 1880 4449 1756 4215 C 1742 4189 1726 4162 1722 4156 C 1718 4150 1706 4123 1697 4095 C 1607 3831 1633 3534 1767 3291 C 1964 2935 2353 2734 2755 2779 C 2869 2792 2978 2816 2995 2831 C 3012 2848 3069 2841 3088 2820 C 3103 2801 3105 2756 3110 2302 L 3115 1805 L 3363 1802 L 3610 1800 L 3613 2677 C 3616 3838 3616 3838 3585 3995 C 3561 4115 3473 4286 3379 4394 C 3289 4497 3146 4609 3054 4645 C 3033 4654 3001 4668 2984 4675 C 2950 4691 2846 4717 2784 4725 C 2619 4747 2510 4753 2465 4743 z M 3083 3582 C 3106 3555 3109 3536 3095 3502 C 3078 3463 3040 3451 3005 3474 C 2967 3499 2957 3525 2972 3557 C 2996 3606 3051 3619 3083 3582 z" stroke-linecap="round" />
</g>
</svg>